HIERARCHY
ROOT Hips
{
  OFFSET 0 89.5177 0.535
  CHANNELS 6 Xposition Yposition Zposition Zrotation Xrotation Yrotation
  JOINT Spine
  {
    OFFSET 12.0259 -0.162855 1.69034e-005
    CHANNELS 3 Zrotation Xrotation Yrotation
    JOINT Spine1
    {
      OFFSET 15.3169 -0.0121922 0
      CHANNELS 3 Zrotation Xrotation Yrotation
      JOINT Spine2
      {
        OFFSET 15.3176 -0.0121908 0
        CHANNELS 3 Zrotation Xrotation Yrotation
        JOINT Neck
        {
          OFFSET 19.9142 1.56338 0
          CHANNELS 3 Zrotation Xrotation Yrotation
          JOINT Head
          {
            OFFSET 6.92651 0 0
            CHANNELS 3 Zrotation Xrotation Yrotation
            End Site
            {
              OFFSET 20.7666 0 0
            }
          }
          JOINT LeftShoulder
          {
            OFFSET -6.20654 0.708824 7.28219
            CHANNELS 3 Zrotation Xrotation Yrotation
            JOINT LeftArm
            {
              OFFSET 14.108 0 -1.52588e-005
              CHANNELS 3 Zrotation Xrotation Yrotation
              JOINT LeftForeArm
              {
                OFFSET 28.5802 0 0
                CHANNELS 3 Zrotation Xrotation Yrotation
                JOINT LeftHand
                {
                  OFFSET 27.092 0 0
                  CHANNELS 3 Zrotation Xrotation Yrotation
                  End Site
                  {
                    OFFSET 9.55928 -0.186424 0.145352
                  }
                }
              }
            }
          }
          JOINT RightShoulder
          {
            OFFSET -6.20654 0.708866 -7.28218
            CHANNELS 3 Zrotation Xrotation Yrotation
            JOINT RightArm
            {
              OFFSET 14.108 0 1.52588e-005
              CHANNELS 3 Zrotation Xrotation Yrotation
              JOINT RightForeArm
              {
                OFFSET 28.5802 0 0
                CHANNELS 3 Zrotation Xrotation Yrotation
                JOINT RightHand
                {
                  OFFSET 27.092 0 0
                  CHANNELS 3 Zrotation Xrotation Yrotation
                  End Site
                  {
                    OFFSET 9.55929 -0.186417 -0.145354
                  }
                }
              }
            }
          }
        }
      }
    }
  }
  JOINT LeftUpLeg
  {
    OFFSET 0.005 -0.535 8.837
    CHANNELS 3 Zrotation Xrotation Yrotation
    JOINT LeftLeg
    {
      OFFSET 39.9035 0 0
      CHANNELS 3 Zrotation Xrotation Yrotation
      JOINT LeftFoot
      {
        OFFSET 39.6689 0 0
        CHANNELS 3 Zrotation Xrotation Yrotation
        JOINT LeftToe
        {
          OFFSET 10.1624 13.6296 0
          CHANNELS 3 Zrotation Xrotation Yrotation
          End Site
          {
            OFFSET 8.38147 0 0
          }
        }
      }
    }
  }
  JOINT RightUpLeg
  {
    OFFSET 0.005 -0.535 -8.837
    CHANNELS 3 Zrotation Xrotation Yrotation
    JOINT RightLeg
    {
      OFFSET 39.9035 0 0
      CHANNELS 3 Zrotation Xrotation Yrotation
      JOINT RightFoot
      {
        OFFSET 39.6689 0 0
        CHANNELS 3 Zrotation Xrotation Yrotation
        JOINT RightToe
        {
          OFFSET 10.1624 13.6296 0
          CHANNELS 3 Zrotation Xrotation Yrotation
          End Site
          {
            OFFSET 8.38147 0 0
          }
        }
      }
    }
  }
}
MOTION
Frames:	7
Frame Time:	0.0333333
476.928 86.5244 -175.707 148.332 -79.0947 57.5901 -1.23128 -0.380191 -0.612717 -2.46664 -0.746643 -1.23332 -2.46664 -0.746643 -1.23333 -8.30748e-012 -9.0191e-006 -5.27751e-005 12.8706 8.75452 -4.92833 178.547 -14.9456 -95.6182 -28.0245 -48.5397 -5.7022 -4.03389e-006 6.36111e-015 3.97569e-016 -44.3483 -28.3432 -33.0513 178.712 6.16496 101.829 77.7711 66.2937 -84.912 -2.97123 7.95139e-016 -2.38542e-015 -35.3544 13.9201 18.3966 -12.0602 4.55285 -176.853 -24.5052 -1.59028e-015 -0 21.9179 3.8675 -2.65801 90 -2.06638e-020 -0 -11.0546 -7.08684 -179.065 -23.6131 0 -0 21.7898 -0.813372 -0.886612 90 1.21329e-020 -9.93923e-017 
476.777 86.5147 -175.674 148.625 -79.1088 57.8396 -1.24007 -0.371014 -0.601551 -2.48404 -0.728438 -1.21084 -2.48404 -0.728438 -1.21085 -8.30669e-012 -9.0191e-006 -5.27751e-005 12.7661 8.81184 -4.95472 178.561 -14.9743 -95.5524 -28.0291 -48.3196 -5.81304 -4.03389e-006 -1.27222e-014 -1.19271e-015 -44.4127 -28.4356 -33.1202 178.708 6.16542 101.856 77.7229 66.2547 -84.8659 -3.00657 2.38542e-015 -7.95139e-016 -35.3676 13.9034 18.3672 -12.1528 4.6137 -176.913 -24.6582 1.59028e-015 2.38542e-015 21.9932 3.8806 -2.54288 90 -2.32704e-020 3.18055e-015 -11.1382 -7.08587 -179.144 -23.6955 -1.98785e-016 -1.98785e-016 21.8023 -0.851143 -0.770352 90 -9.09964e-021 4.96962e-017 
476.627 86.5107 -175.63 148.985 -79.121 58.1738 -1.24356 -0.362227 -0.595443 -2.49089 -0.710962 -1.19846 -2.49089 -0.710962 -1.19847 -8.30669e-012 -9.0191e-006 -5.27751e-005 12.6399 8.91092 -5.00215 178.561 -15.0243 -95.5338 -27.9902 -48.2444 -5.82959 -4.03389e-006 1.27222e-014 -3.97569e-016 -44.4232 -28.4769 -33.1972 178.706 6.1718 101.861 77.8123 66.2578 -84.978 -3.0187 7.95139e-016 -0 -35.332 13.8656 18.3022 -12.2374 4.67139 -176.988 -24.7644 4.77083e-015 1.59028e-015 22.0366 3.90126 -2.43055 90 -5.30812e-020 3.18055e-015 -11.2315 -7.03321 -179.235 -23.7645 0 -0 21.8021 -0.860915 -0.657112 90 9.09964e-021 -0 
476.491 86.5044 -175.577 149.16 -79.1371 58.3358 -1.24688 -0.35417 -0.595604 -2.49742 -0.694832 -1.19684 -2.49742 -0.694832 -1.19685 -8.30748e-012 -9.0191e-006 -5.27751e-005 12.5536 8.99538 -4.99008 178.561 -15.0296 -95.5324 -27.9625 -48.2513 -5.85493 -4.03389e-006 1.27222e-014 -0 -44.451 -28.4607 -33.1731 178.702 6.18771 101.869 77.8021 66.2605 -84.9802 -3.0032 0 7.95139e-016 -35.3769 13.8745 18.3111 -12.32 4.70783 -177.072 -24.8873 3.18055e-015 7.95139e-016 22.0765 3.93091 -2.32373 90 8.18968e-020 -2.38542e-015 -11.3301 -7.02983 -179.33 -23.8716 0 -0 21.8148 -0.868264 -0.558037 90 -1.97159e-020 -0 
476.361 86.4923 -175.52 149.178 -79.1441 58.3147 -1.24363 -0.352365 -0.596042 -2.49086 -0.691331 -1.1931 -2.49086 -0.691331 -1.19311 -8.30708e-012 -9.0191e-006 -5.27751e-005 12.4999 9.01133 -4.99705 178.549 -15.0484 -95.5731 -27.9235 -48.4029 -5.82592 -4.03389e-006 0 -7.95139e-016 -44.4138 -28.3876 -33.0565 178.695 6.20439 101.907 78.0027 66.2247 -85.1809 -3.00925 1.59028e-015 -1.59028e-015 -35.3466 13.8832 18.3804 -12.4283 4.69066 -177.124 -25.073 1.59028e-015 -7.95139e-016 22.1455 3.94005 -2.22332 90 1.45594e-019 -7.95139e-016 -11.4142 -7.00235 -179.396 -23.9837 -1.98785e-016 -9.93923e-017 21.8352 -0.847198 -0.462876 90 1.21329e-019 -0 
476.236 86.4771 -175.461 149.127 -79.1434 58.2247 -1.23471 -0.348576 -0.596682 -2.47293 -0.683788 -1.18909 -2.47293 -0.683788 -1.1891 -8.30788e-012 -9.0191e-006 -5.27751e-005 12.4389 9.00071 -4.93647 178.533 -15.085 -95.6215 -27.9467 -48.3351 -5.80367 -4.03389e-006 3.18055e-015 -1.19271e-015 -44.4276 -28.4236 -33.1028 178.683 6.24522 101.93 78.3868 66.1955 -85.5479 -2.9838 0 -7.95139e-016 -35.3004 13.7821 18.2912 -12.5621 4.70644 -177.17 -25.2865 1.59028e-015 -0 22.221 3.987 -2.12735 90 2.12325e-020 -0 -11.5171 -7.02762 -179.467 -24.1216 -3.97569e-016 9.93923e-017 21.8648 -0.861977 -0.367653 90 -1.51661e-020 1.98785e-016 
476.115 86.4613 -175.389 148.995 -79.1263 58.0736 -1.2291 -0.359002 -0.597454 -2.4618 -0.704786 -1.18723 -2.4618 -0.704786 -1.18724 -8.30748e-012 -9.0191e-006 -5.27751e-005 12.421 9.06343 -4.97068 178.525 -15.0942 -95.6474 -27.8238 -48.4685 -5.71808 -4.03389e-006 -1.27222e-014 -3.97569e-016 -44.332 -28.2948 -32.965 178.669 6.2685 102.01 78.5727 66.1291 -85.7789 -3.04888 -2.38542e-015 7.95139e-016 -35.2419 13.7744 18.3033 -12.6881 4.62417 -177.251 -25.4803 -3.18055e-015 -0 22.2837 3.97495 -2.02442 90 -5.30812e-020 7.95139e-016 -11.6401 -7.01842 -179.553 -24.2847 -1.98785e-016 -9.93923e-017 21.9073 -0.838154 -0.280291 90 3.03321e-021 1.49089e-016 
